<svg id="svg" version="1.1" xmlns="http://www.w3.org/2000/svg" xmlns:xlink="http://www.w3.org/1999/xlink" width="400" height="248.54368932038835" viewBox="0, 0, 400,248.54368932038835"><g id="svgg"><path id="path0" d="M0.000 124.301 L 0.000 248.602 70.495 248.602 L 140.991 248.602 140.829 248.042 C 140.739 247.735,140.452 247.180,140.190 246.809 C 139.928 246.439,139.714 246.081,139.714 246.014 C 139.714 245.947,139.378 245.395,138.968 244.787 C 138.558 244.179,138.222 243.558,138.222 243.407 C 138.222 243.256,138.111 243.132,137.974 243.132 C 137.837 243.132,137.725 243.013,137.725 242.866 C 137.725 242.720,136.551 240.656,135.115 238.279 C 133.679 235.902,132.505 233.840,132.505 233.697 C 132.505 233.554,132.393 233.437,132.256 233.437 C 132.119 233.437,132.007 233.305,132.007 233.143 C 132.007 232.982,131.577 232.171,131.050 231.341 C 130.055 229.773,126.411 223.677,125.690 222.374 C 125.463 221.964,124.734 220.733,124.069 219.640 C 123.404 218.546,122.212 216.532,121.420 215.165 C 120.629 213.797,119.107 211.248,118.039 209.498 C 116.971 207.749,116.097 206.257,116.097 206.184 C 116.097 206.110,115.146 204.502,113.984 202.611 C 112.822 200.720,111.796 198.968,111.703 198.717 C 111.610 198.465,111.463 198.204,111.376 198.135 C 111.166 197.969,109.385 195.002,109.385 194.818 C 109.385 194.738,108.789 193.746,108.062 192.613 C 107.334 191.480,106.231 189.658,105.610 188.564 C 104.989 187.470,103.867 185.564,103.117 184.328 C 102.367 183.093,101.473 181.582,101.131 180.972 C 100.456 179.769,93.900 168.711,92.661 166.687 C 92.243 166.004,91.213 164.270,90.374 162.834 C 89.534 161.398,88.542 159.720,88.171 159.105 C 87.799 158.490,87.038 157.203,86.479 156.246 C 85.630 154.789,84.755 153.330,83.278 150.901 C 81.300 147.650,78.558 142.898,78.558 142.721 C 78.558 142.594,78.463 142.453,78.347 142.407 C 78.231 142.362,77.854 141.821,77.508 141.206 C 76.554 139.505,73.925 135.062,72.823 133.284 C 72.283 132.414,71.462 131.016,70.999 130.177 C 70.535 129.338,69.697 127.870,69.136 126.915 C 67.619 124.331,67.642 124.224,70.848 118.828 C 72.350 116.301,73.696 114.065,73.840 113.860 C 73.984 113.654,74.237 113.238,74.403 112.933 C 74.823 112.163,78.094 106.615,79.281 104.661 C 80.117 103.284,82.008 100.068,83.903 96.796 C 84.177 96.324,85.463 94.183,86.762 92.038 C 88.061 89.893,89.441 87.577,89.830 86.891 C 90.795 85.185,95.094 77.933,97.616 73.757 C 98.756 71.869,99.689 70.257,99.689 70.176 C 99.689 70.095,99.969 69.662,100.311 69.213 C 100.653 68.765,100.932 68.319,100.932 68.222 C 100.932 68.125,101.944 66.356,103.181 64.290 C 104.418 62.225,105.519 60.367,105.629 60.162 C 105.739 59.956,107.169 57.551,108.806 54.817 C 110.443 52.082,112.937 47.887,114.348 45.494 C 115.758 43.101,117.391 40.360,117.977 39.403 C 118.563 38.446,120.015 35.985,121.204 33.934 C 122.393 31.883,123.465 30.168,123.585 30.122 C 123.705 30.077,123.804 29.925,123.804 29.785 C 123.804 29.646,124.810 27.859,126.041 25.814 C 127.272 23.769,128.278 21.991,128.278 21.862 C 128.278 21.734,128.366 21.628,128.473 21.628 C 128.579 21.628,128.797 21.321,128.957 20.945 C 129.117 20.569,130.532 18.135,132.103 15.538 C 134.602 11.405,135.841 9.320,138.471 4.820 C 138.813 4.235,139.540 2.995,140.087 2.065 C 140.634 1.134,141.119 0.289,141.164 0.186 C 141.210 0.084,109.467 0.000,70.624 0.000 L 0.000 0.000 0.000 124.301 " stroke="none" fill="#ccf4d4" fill-rule="evenodd"></path><path id="path1" d="M141.421 0.684 C 140.838 1.845,139.623 3.836,139.287 4.182 C 139.112 4.363,138.968 4.670,138.968 4.865 C 138.968 5.061,138.856 5.221,138.720 5.221 C 138.583 5.221,138.471 5.353,138.471 5.516 C 138.471 5.678,137.490 7.440,136.292 9.431 C 135.093 11.422,133.893 13.471,133.625 13.984 C 133.357 14.497,133.051 14.916,132.945 14.916 C 132.840 14.916,132.753 15.030,132.753 15.170 C 132.753 15.310,132.489 15.841,132.165 16.351 C 131.842 16.861,130.624 18.900,129.460 20.883 C 128.296 22.865,126.687 25.580,125.884 26.915 C 125.082 28.250,124.257 29.648,124.052 30.022 C 123.847 30.396,123.595 30.740,123.493 30.785 C 123.390 30.831,123.306 30.981,123.306 31.118 C 123.306 31.256,122.169 33.233,120.779 35.510 C 119.389 37.788,118.009 40.099,117.711 40.646 C 117.414 41.193,115.973 43.642,114.509 46.087 C 112.106 50.099,111.256 51.565,110.507 52.984 C 110.372 53.240,110.176 53.449,110.072 53.449 C 109.967 53.449,109.882 53.564,109.882 53.704 C 109.882 53.844,109.434 54.667,108.888 55.533 C 108.341 56.399,107.893 57.162,107.893 57.229 C 107.893 57.296,106.657 59.397,105.147 61.898 C 103.637 64.400,102.141 66.906,101.823 67.468 C 100.487 69.829,98.634 72.982,98.446 73.213 C 98.263 73.438,96.404 76.598,95.156 78.807 C 94.886 79.285,94.541 79.829,94.390 80.014 C 94.082 80.392,93.689 81.057,93.120 82.163 C 92.909 82.573,92.148 83.879,91.427 85.065 C 90.707 86.251,89.348 88.544,88.406 90.161 C 87.465 91.778,86.438 93.493,86.124 93.971 C 85.810 94.450,85.415 95.149,85.247 95.525 C 85.079 95.901,84.848 96.209,84.733 96.209 C 84.618 96.209,84.525 96.322,84.525 96.461 C 84.525 96.725,82.068 100.944,80.011 104.212 C 79.348 105.265,78.807 106.193,78.807 106.275 C 78.807 106.358,78.415 107.037,77.937 107.786 C 77.458 108.534,77.067 109.198,77.067 109.263 C 77.067 109.327,76.563 110.165,75.948 111.125 C 75.333 112.085,74.829 112.911,74.829 112.960 C 74.829 113.009,74.126 114.211,73.267 115.630 C 70.477 120.239,68.365 124.026,68.365 124.423 C 68.365 124.636,69.232 126.260,70.292 128.033 C 71.352 129.806,72.389 131.565,72.597 131.943 C 72.989 132.656,77.798 140.758,80.360 145.024 C 81.170 146.372,82.084 147.938,82.391 148.504 C 82.699 149.071,83.976 151.222,85.229 153.285 C 86.482 155.348,87.508 157.166,87.508 157.325 C 87.508 157.484,87.602 157.613,87.717 157.613 C 87.832 157.613,88.140 158.032,88.401 158.544 C 88.662 159.055,89.795 160.995,90.918 162.854 C 92.042 164.713,93.043 166.448,93.143 166.709 C 93.243 166.971,93.416 167.296,93.527 167.433 C 93.917 167.912,94.870 169.435,95.703 170.914 C 96.166 171.734,98.203 175.174,100.230 178.559 C 102.257 181.943,103.915 184.787,103.915 184.878 C 103.915 184.970,104.069 185.221,104.256 185.437 C 104.444 185.653,104.894 186.371,105.258 187.032 C 106.099 188.563,108.872 193.213,110.426 195.698 C 111.084 196.750,111.622 197.662,111.622 197.724 C 111.622 197.838,113.665 201.287,117.507 207.660 C 118.646 209.548,119.577 211.155,119.577 211.231 C 119.577 211.307,120.081 212.126,120.696 213.052 C 121.311 213.977,121.815 214.796,121.815 214.872 C 121.815 214.948,122.374 215.940,123.057 217.076 C 123.741 218.213,124.300 219.273,124.300 219.432 C 124.301 219.592,124.397 219.760,124.514 219.805 C 124.726 219.888,126.943 223.459,127.960 225.357 C 128.253 225.904,129.107 227.359,129.858 228.589 C 131.369 231.067,133.501 234.625,135.519 238.036 C 137.353 241.137,137.362 241.152,139.590 245.077 L 141.579 248.580 270.789 248.591 L 400.000 248.602 400.000 124.301 L 400.000 0.000 270.883 0.000 L 141.765 0.000 141.421 0.684 " stroke="none" fill="#fcfcfc" fill-rule="evenodd"></path><path id="path2" d="M123.153 30.889 C 122.297 32.341,122.241 32.465,122.677 31.945 C 123.182 31.344,123.617 30.578,123.454 30.578 C 123.389 30.578,123.253 30.718,123.153 30.889 M84.371 96.271 C 83.515 97.723,83.459 97.847,83.895 97.328 C 84.400 96.726,84.835 95.960,84.672 95.960 C 84.607 95.960,84.471 96.100,84.371 96.271 M75.087 136.855 C 75.088 136.992,75.318 137.383,75.597 137.725 C 75.935 138.138,76.019 138.180,75.849 137.850 C 75.429 137.039,75.085 136.589,75.087 136.855 M118.302 209.695 C 118.437 209.969,118.729 210.416,118.951 210.690 L 119.356 211.187 119.112 210.690 C 118.978 210.416,118.686 209.969,118.463 209.695 L 118.058 209.198 118.302 209.695 " stroke="none" fill="#e4fce4" fill-rule="evenodd"></path><path id="path3" d="M140.617 1.802 L 140.170 2.610 140.682 1.989 C 141.137 1.438,141.338 0.994,141.135 0.994 C 141.096 0.994,140.863 1.358,140.617 1.802 M136.972 7.893 C 135.426 10.448,135.429 10.441,135.559 10.441 C 135.614 10.441,136.252 9.462,136.977 8.266 C 138.577 5.623,138.525 5.718,138.395 5.718 C 138.337 5.718,137.697 6.697,136.972 7.893 M133.307 14.064 C 133.000 14.533,132.834 14.915,132.937 14.915 C 133.138 14.913,134.063 13.408,133.939 13.284 C 133.899 13.244,133.615 13.595,133.307 14.064 M132.165 15.973 L 131.717 16.781 132.230 16.159 C 132.684 15.608,132.886 15.165,132.683 15.165 C 132.644 15.165,132.411 15.528,132.165 15.973 M130.143 19.391 C 129.931 19.801,129.813 20.137,129.882 20.137 C 129.950 20.137,130.179 19.801,130.392 19.391 C 130.604 18.981,130.721 18.645,130.653 18.645 C 130.585 18.645,130.355 18.981,130.143 19.391 M127.005 24.674 C 126.843 24.981,126.547 25.513,126.349 25.855 C 126.003 26.451,126.006 26.456,126.407 25.979 C 126.902 25.390,127.598 24.114,127.423 24.114 C 127.356 24.114,127.168 24.366,127.005 24.674 M125.352 27.430 C 125.083 27.886,124.661 28.585,124.413 28.984 C 124.091 29.502,124.073 29.602,124.349 29.335 C 124.788 28.911,126.153 26.600,125.965 26.600 C 125.897 26.600,125.621 26.974,125.352 27.430 M122.904 31.635 C 122.048 33.086,121.992 33.210,122.428 32.691 C 122.933 32.090,123.369 31.324,123.206 31.324 C 123.140 31.324,123.005 31.464,122.904 31.635 M121.176 34.493 C 120.798 35.143,120.327 35.954,120.128 36.296 L 119.767 36.917 120.232 36.358 C 120.774 35.705,122.146 33.313,121.977 33.313 C 121.914 33.313,121.553 33.844,121.176 34.493 M115.973 43.257 C 115.761 43.667,115.643 44.002,115.711 44.002 C 115.780 44.002,116.009 43.667,116.221 43.257 C 116.433 42.846,116.551 42.511,116.483 42.511 C 116.414 42.511,116.185 42.846,115.973 43.257 M114.452 45.805 C 113.596 47.257,113.540 47.381,113.976 46.861 C 114.481 46.260,114.916 45.494,114.753 45.494 C 114.688 45.494,114.552 45.634,114.452 45.805 M111.220 51.274 C 111.119 51.445,110.861 51.860,110.646 52.197 C 110.403 52.577,110.373 52.736,110.567 52.616 C 110.889 52.418,111.726 50.963,111.519 50.963 C 111.455 50.963,111.320 51.103,111.220 51.274 M107.304 57.986 L 106.857 58.794 107.370 58.173 C 107.824 57.622,108.026 57.178,107.822 57.178 C 107.784 57.178,107.550 57.542,107.304 57.986 M106.344 59.478 C 105.801 60.316,105.313 61.315,105.585 61.032 C 105.934 60.669,106.960 58.919,106.823 58.919 C 106.759 58.919,106.544 59.170,106.344 59.478 M104.880 61.964 C 104.717 62.272,104.422 62.803,104.223 63.145 C 103.878 63.741,103.880 63.746,104.281 63.269 C 104.777 62.680,105.472 61.405,105.298 61.405 C 105.231 61.405,105.043 61.656,104.880 61.964 M101.089 68.428 L 100.642 69.236 101.155 68.614 C 101.609 68.063,101.811 67.620,101.607 67.620 C 101.568 67.620,101.335 67.983,101.089 68.428 M99.162 71.659 C 98.999 71.967,98.704 72.498,98.506 72.840 C 98.160 73.437,98.162 73.442,98.563 72.965 C 99.059 72.375,99.754 71.100,99.580 71.100 C 99.513 71.100,99.325 71.352,99.162 71.659 M96.839 75.472 C 96.607 75.826,96.460 76.158,96.513 76.210 C 96.565 76.263,96.804 75.973,97.044 75.567 C 97.580 74.660,97.420 74.586,96.839 75.472 M96.055 76.880 C 95.199 78.332,95.143 78.456,95.579 77.937 C 96.084 77.335,96.520 76.569,96.357 76.569 C 96.291 76.569,96.156 76.709,96.055 76.880 M94.631 79.221 C 94.378 79.559,94.223 79.887,94.286 79.950 C 94.349 80.013,94.593 79.772,94.828 79.414 C 95.380 78.571,95.228 78.422,94.631 79.221 M92.823 82.349 C 91.967 83.801,91.912 83.925,92.347 83.406 C 92.852 82.804,93.288 82.039,93.125 82.039 C 93.060 82.039,92.924 82.178,92.823 82.349 M90.267 86.653 C 89.979 87.139,89.857 87.468,89.995 87.383 C 90.265 87.216,91.071 85.768,90.895 85.768 C 90.836 85.768,90.554 86.166,90.267 86.653 M87.109 91.920 C 86.741 92.570,86.275 93.381,86.073 93.723 C 85.753 94.264,85.753 94.296,86.071 93.971 C 86.487 93.546,88.070 90.740,87.893 90.740 C 87.830 90.740,87.476 91.271,87.109 91.920 M84.122 97.017 C 83.266 98.469,83.211 98.593,83.646 98.073 C 84.151 97.472,84.587 96.706,84.424 96.706 C 84.359 96.706,84.223 96.846,84.122 97.017 M81.657 101.119 C 80.234 103.597,79.979 104.096,80.470 103.439 C 81.067 102.642,82.596 99.938,82.449 99.938 C 82.386 99.938,82.029 100.469,81.657 101.119 M77.907 107.458 C 77.051 108.910,76.996 109.034,77.431 108.515 C 77.936 107.913,78.372 107.147,78.209 107.147 C 78.144 107.147,78.008 107.287,77.907 107.458 M76.478 109.944 L 76.031 110.752 76.543 110.131 C 76.997 109.579,77.199 109.136,76.996 109.136 C 76.957 109.136,76.724 109.500,76.478 109.944 M72.438 116.656 C 71.582 118.108,71.526 118.232,71.962 117.713 C 72.467 117.111,72.902 116.346,72.739 116.346 C 72.674 116.346,72.539 116.485,72.438 116.656 M70.976 119.080 C 70.764 119.490,70.646 119.826,70.714 119.826 C 70.783 119.826,71.012 119.490,71.224 119.080 C 71.436 118.670,71.554 118.334,71.486 118.334 C 71.417 118.334,71.188 118.670,70.976 119.080 M68.877 122.716 C 68.585 123.212,68.386 123.658,68.435 123.708 C 68.485 123.757,68.776 123.352,69.083 122.806 C 69.779 121.568,69.601 121.490,68.877 122.716 M68.688 125.730 C 69.437 127.087,70.934 129.521,71.019 129.521 C 71.149 129.521,71.208 129.633,69.865 127.346 C 69.282 126.355,68.756 125.544,68.695 125.544 C 68.634 125.544,68.631 125.628,68.688 125.730 M72.253 131.635 C 72.828 132.616,72.840 132.631,72.840 132.325 C 72.840 132.181,72.610 131.798,72.328 131.476 L 71.816 130.889 72.253 131.635 M73.057 133.126 C 73.191 133.400,73.483 133.847,73.706 134.121 L 74.111 134.618 73.867 134.121 C 73.732 133.847,73.440 133.400,73.218 133.126 L 72.813 132.629 73.057 133.126 M74.534 135.612 C 74.811 136.159,75.222 136.830,75.447 137.104 C 75.671 137.377,75.550 137.042,75.177 136.358 C 74.342 134.828,73.839 134.244,74.534 135.612 M76.339 138.595 C 76.646 139.142,77.004 139.702,77.135 139.838 C 77.507 140.229,76.656 138.654,76.194 138.098 C 75.967 137.825,76.032 138.048,76.339 138.595 M78.434 142.200 C 78.646 142.610,78.875 142.946,78.944 142.946 C 79.012 142.946,78.895 142.610,78.682 142.200 C 78.470 141.790,78.241 141.454,78.172 141.454 C 78.104 141.454,78.222 141.790,78.434 142.200 M79.272 143.567 C 79.406 143.841,79.698 144.288,79.921 144.562 L 80.326 145.059 80.082 144.562 C 79.947 144.288,79.655 143.841,79.433 143.567 L 79.028 143.070 79.272 143.567 M81.516 147.296 C 81.935 148.107,82.280 148.557,82.278 148.291 C 82.277 148.154,82.047 147.763,81.768 147.421 C 81.430 147.008,81.346 146.966,81.516 147.296 M83.084 150.052 C 83.398 150.611,83.855 151.338,84.100 151.668 C 84.346 151.998,84.290 151.811,83.976 151.253 C 83.662 150.694,83.205 149.967,82.960 149.637 C 82.715 149.307,82.771 149.494,83.084 150.052 M85.786 154.506 C 86.093 155.053,86.451 155.612,86.582 155.749 C 86.954 156.139,86.102 154.564,85.641 154.009 C 85.414 153.735,85.479 153.959,85.786 154.506 M87.758 157.670 C 87.757 157.769,87.980 158.216,88.253 158.664 C 88.526 159.112,88.749 159.366,88.748 159.229 C 88.748 159.093,88.525 158.645,88.254 158.235 C 87.982 157.825,87.759 157.570,87.758 157.670 M89.822 161.467 C 90.032 161.877,90.390 162.436,90.618 162.710 C 90.845 162.983,90.780 162.759,90.473 162.213 C 89.795 161.006,89.288 160.424,89.822 161.467 M91.290 163.828 C 91.489 164.170,91.961 164.981,92.338 165.631 C 92.715 166.280,93.076 166.812,93.139 166.812 C 93.308 166.812,91.937 164.419,91.394 163.766 L 90.929 163.207 91.290 163.828 M94.741 169.656 C 95.029 170.142,95.311 170.541,95.370 170.541 C 95.546 170.541,94.739 169.092,94.470 168.926 C 94.332 168.840,94.454 169.169,94.741 169.656 M98.414 175.886 C 98.549 176.159,98.841 176.607,99.063 176.880 L 99.468 177.377 99.224 176.880 C 99.090 176.607,98.798 176.159,98.575 175.886 L 98.170 175.388 98.414 175.886 M100.951 180.112 C 101.258 180.659,101.616 181.218,101.746 181.355 C 102.119 181.745,101.267 180.170,100.806 179.615 C 100.578 179.341,100.644 179.565,100.951 180.112 M103.220 183.949 C 103.530 184.486,103.826 184.884,103.878 184.832 C 103.985 184.724,102.940 182.971,102.769 182.971 C 102.708 182.971,102.911 183.411,103.220 183.949 M106.370 189.310 C 106.504 189.584,106.796 190.031,107.018 190.305 L 107.423 190.802 107.179 190.305 C 107.045 190.031,106.753 189.584,106.530 189.310 L 106.125 188.813 106.370 189.310 M108.010 192.045 C 108.392 192.728,108.820 193.400,108.961 193.536 C 109.103 193.673,108.905 193.226,108.522 192.542 C 108.140 191.858,107.712 191.187,107.571 191.050 C 107.429 190.914,107.627 191.361,108.010 192.045 M109.763 195.044 C 109.995 195.464,110.405 196.079,110.675 196.412 L 111.166 197.017 110.746 196.255 C 110.515 195.835,110.105 195.220,109.835 194.887 L 109.343 194.282 109.763 195.044 M112.585 199.751 C 112.719 200.025,113.011 200.472,113.234 200.746 L 113.638 201.243 113.394 200.746 C 113.260 200.472,112.968 200.025,112.745 199.751 L 112.341 199.254 112.585 199.751 M113.620 201.492 C 113.621 201.628,113.851 202.020,114.130 202.362 C 114.468 202.775,114.552 202.816,114.382 202.486 C 113.963 201.675,113.618 201.226,113.620 201.492 M115.816 205.221 C 115.951 205.494,116.243 205.942,116.465 206.215 L 116.870 206.712 116.626 206.215 C 116.492 205.942,116.200 205.494,115.977 205.221 L 115.572 204.723 115.816 205.221 M118.054 208.950 C 118.188 209.223,118.480 209.671,118.703 209.944 L 119.108 210.441 118.864 209.944 C 118.729 209.671,118.437 209.223,118.215 208.950 L 117.810 208.452 118.054 208.950 M120.757 213.551 C 121.245 214.373,121.692 214.998,121.750 214.939 C 121.862 214.827,120.156 212.057,119.975 212.057 C 119.918 212.057,120.269 212.730,120.757 213.551 M126.837 223.725 C 127.147 224.263,127.443 224.660,127.495 224.608 C 127.602 224.501,126.558 222.747,126.386 222.747 C 126.325 222.747,126.528 223.187,126.837 223.725 M131.286 231.309 C 131.573 231.796,131.856 232.194,131.914 232.194 C 132.091 232.194,131.284 230.745,131.014 230.579 C 130.876 230.494,130.999 230.822,131.286 231.309 M133.269 234.556 C 133.576 235.103,133.934 235.662,134.064 235.799 C 134.437 236.189,133.585 234.614,133.124 234.058 C 132.896 233.785,132.962 234.009,133.269 234.556 M135.000 237.539 C 135.001 237.676,135.230 238.067,135.510 238.409 C 135.848 238.822,135.932 238.863,135.761 238.533 C 135.342 237.722,134.998 237.273,135.000 237.539 M136.209 239.528 C 136.628 240.339,136.972 240.788,136.970 240.522 C 136.969 240.385,136.740 239.994,136.460 239.652 C 136.122 239.239,136.038 239.197,136.209 239.528 M137.196 241.268 C 137.330 241.541,137.622 241.989,137.845 242.262 L 138.250 242.759 138.006 242.262 C 137.872 241.989,137.580 241.541,137.357 241.268 L 136.952 240.771 137.196 241.268 " stroke="none" fill="#f4fcf4" fill-rule="evenodd"></path><path id="path4" d="M138.816 4.110 C 138.589 4.456,138.449 4.784,138.504 4.839 C 138.560 4.895,138.793 4.612,139.024 4.210 C 139.537 3.316,139.384 3.242,138.816 4.110 M129.616 19.702 C 128.760 21.154,128.705 21.277,129.141 20.758 C 129.645 20.157,130.081 19.391,129.918 19.391 C 129.853 19.391,129.717 19.531,129.616 19.702 M118.012 39.217 C 117.955 39.319,117.594 39.963,117.210 40.646 C 116.826 41.330,116.628 41.778,116.769 41.641 C 117.129 41.292,118.410 39.030,118.248 39.030 C 118.175 39.030,118.069 39.114,118.012 39.217 M110.039 52.766 L 109.592 53.574 110.104 52.952 C 110.559 52.401,110.760 51.958,110.557 51.958 C 110.518 51.958,110.285 52.321,110.039 52.766 M108.244 55.749 C 107.091 57.680,107.093 57.676,107.233 57.676 C 107.297 57.676,107.657 57.144,108.035 56.495 C 108.412 55.845,108.883 55.062,109.082 54.755 C 109.280 54.447,109.381 54.195,109.307 54.195 C 109.233 54.195,108.755 54.894,108.244 55.749 M96.304 75.886 C 95.448 77.337,95.392 77.461,95.828 76.942 C 96.333 76.341,96.768 75.575,96.605 75.575 C 96.540 75.575,96.404 75.715,96.304 75.886 M93.072 81.355 C 92.216 82.807,92.160 82.931,92.596 82.411 C 93.101 81.810,93.536 81.044,93.373 81.044 C 93.308 81.044,93.173 81.184,93.072 81.355 M71.257 118.148 L 70.810 118.956 71.322 118.334 C 71.777 117.783,71.979 117.340,71.775 117.340 C 71.736 117.340,71.503 117.704,71.257 118.148 M69.303 121.380 C 68.759 122.218,68.271 123.217,68.544 122.933 C 68.892 122.571,69.918 120.820,69.782 120.820 C 69.718 120.820,69.502 121.072,69.303 121.380 M68.185 124.301 C 68.185 124.916,68.233 125.168,68.292 124.860 C 68.352 124.553,68.352 124.049,68.292 123.741 C 68.233 123.434,68.185 123.686,68.185 124.301 M71.674 131.386 C 71.885 131.796,72.243 132.356,72.470 132.629 C 72.697 132.902,72.632 132.679,72.325 132.132 C 71.647 130.925,71.140 130.343,71.674 131.386 M79.521 144.562 C 79.655 144.835,79.947 145.283,80.170 145.556 L 80.574 146.053 80.330 145.556 C 80.196 145.283,79.904 144.835,79.681 144.562 L 79.276 144.065 79.521 144.562 M80.920 146.924 C 81.132 147.334,81.361 147.669,81.430 147.669 C 81.498 147.669,81.381 147.334,81.168 146.924 C 80.956 146.513,80.727 146.178,80.658 146.178 C 80.590 146.178,80.708 146.513,80.920 146.924 M91.453 164.699 C 91.588 164.972,91.880 165.420,92.102 165.693 L 92.507 166.190 92.263 165.693 C 92.129 165.420,91.837 164.972,91.614 164.699 L 91.209 164.201 91.453 164.699 M95.431 171.411 C 95.565 171.684,95.857 172.132,96.080 172.405 L 96.485 172.902 96.241 172.405 C 96.107 172.132,95.814 171.684,95.592 171.411 L 95.187 170.914 95.431 171.411 M103.386 184.835 C 103.521 185.109,103.813 185.556,104.035 185.830 L 104.440 186.327 104.196 185.830 C 104.062 185.556,103.770 185.109,103.547 184.835 L 103.142 184.338 103.386 184.835 M106.618 190.305 C 106.752 190.578,107.044 191.025,107.267 191.299 L 107.672 191.796 107.428 191.299 C 107.294 191.025,107.002 190.578,106.779 190.305 L 106.374 189.807 106.618 190.305 M127.302 225.109 C 127.610 225.656,127.968 226.215,128.098 226.352 C 128.470 226.742,127.619 225.167,127.157 224.612 C 126.930 224.338,126.995 224.562,127.302 225.109 M134.213 236.793 C 134.347 237.067,134.639 237.514,134.862 237.787 L 135.267 238.285 135.023 237.787 C 134.888 237.514,134.596 237.067,134.374 236.793 L 133.969 236.296 134.213 236.793 " stroke="none" fill="#dcf5e4" fill-rule="evenodd"></path></g></svg>